{"title":"Rob Roy [1995] DVDRip x264","uid":12755099,"size":1019503146,"categoryP":"video","categoryS":"movies","magnet":"?xt=urn:btih:af7790090812a71cb2f1112398bba6a24016c7d2&amp;dn=Rob+Roy+%5B1995%5D+DVDRip+x264&amp;tr=udp%3A%2F%2Ftracker.leechers-paradise.org%3A6969&amp;tr=udp%3A%2F%2Fzer0day.ch%3A1337&amp;tr=udp%3A%2F%2Fopen.demonii.com%3A1337&amp;tr=udp%3A%2F%2Ftracker.coppersurfer.tk%3A6969&amp;tr=udp%3A%2F%2Fexodus.desync.com%3A6969","seeders":0,"leechers":0,"uploader":null,"files":1,"time":1447437911,"description":"Format : MPEG-4\r\nFormat profile : Base Media / Version 2\r\nCodec ID : mp42\r\nFile size : 972 MiB\r\nDuration : 2h 19mn\r\nOverall bit rate mode : Variable\r\nOverall bit rate : 977 Kbps\r\nEncoded date : UTC 2036-02-06 06:28:16\r\nTagged date : UTC 2036-02-06 06:28:16\r\nWriting application : HandBrake 0.10.2 2015060900\r\n\r\nVideo\r\nID : 1\r\nFormat : AVC\r\nFormat/Info : Advanced Video Codec\r\nFormat profile :   \r\nFormat settings, CABAC : Yes\r\nFormat settings, ReFrames : 4 frames\r\nCodec ID : avc1\r\nCodec ID/Info : Advanced Video Coding\r\nDuration : 2h 19mn\r\nBit rate : 800 Kbps\r\nWidth : 720 pixels\r\nHeight : 480 pixels\r\nDisplay aspect ratio : 16:9\r\nOriginal display aspect ratio : 16:9\r\nFrame rate mode : Variable\r\nFrame rate : 24.000 fps\r\nMinimum frame rate : 14.985 fps\r\nMaximum frame rate : 29.970 fps\r\nColor space : YUV\r\nChroma subsampling : 4:2:0\r\nBit depth : 8 bits\r\nScan type : Progressive\r\nBits/(Pixel*Frame) : 0.096\r\nStream size : 796 MiB (82%)\r\nWriting library : x264 core 142 r2479 dd79a61\r\nEncoding settings : cabac=1 / ref=3 / deblock=1:0:0 / analyse=0x3:0x113 / me=hex / subme=7 / psy=1 / psy_rd=1.00:0.00 / mixed_ref=1 / me_range=16 / chroma_me=1 / trellis=1 / 8x8dct=1 / cqm=0 / deadzone=21,11 / fast_pskip=1 / chroma_qp_offset=-2 / threads=6 / lookahead_threads=1 / sliced_threads=0 / nr=0 / decimate=1 / interlaced=0 / bluray_compat=0 / constrained_intra=0 / bframes=3 / b_pyramid=2 / b_adapt=1 / b_bias=0 / direct=1 / weightb=1 / open_gop=0 / weightp=2 / keyint=240 / keyint_min=24 / scenecut=40 / intra_refresh=0 / rc_lookahead=40 / rc=2pass / mbtree=1 / bitrate=800 / ratetol=1.0 / qcomp=0.60 / qpmin=0 / qpmax=69 / qpstep=4 / cplxblur=20.0 / qblur=0.5 / ip_ratio=1.40 / aq=1:1.00\r\nEncoded date : UTC 2036-02-06 06:28:16\r\nTagged date : UTC 2036-02-06 06:28:16\r\nColor range : Limited\r\nColor primaries : BT.601 NTSC\r\nTransfer characteristics : BT.709\r\nMatrix coefficients : BT.601\r\n\r\nAudio\r\nID : 2\r\nFormat : AAC\r\nFormat/Info : Advanced Audio Codec\r\nFormat profile : LC\r\nCodec ID : 40\r\nDuration : 2h 19mn\r\nBit rate mode : Variable\r\nBit rate : 160 Kbps\r\nChannel(s) : 2 channels\r\nChannel(s)_Original : 6 channels\r\nChannel positions : Front: L C R, Side: L R, LFE\r\nSampling rate : 48.0 KHz\r\nCompression mode : Lossy\r\nStream size : 159 MiB (16%)\r\nTitle : Surround / Surround\r\nLanguage : English\r\nEncoded date : UTC 2036-02-06 06:28:16\r\nTagged date : UTC 2036-02-06 06:28:16\r\n\r\nText #1\r\nID : 3\r\nFormat : mp4s\r\nCodec ID : E0\r\nDuration : 2h 13mn\r\nBit rate mode : Variable\r\nBit rate : 2 401 bps\r\nStream size : 2.29 MiB (0%)\r\nLanguage : English\r\nEncoded date : UTC 2036-02-06 06:28:16\r\nTagged date : UTC 2036-02-06 06:28:16\r\n\r\nText #2\r\nID : 4\r\nFormat : mp4s\r\nCodec ID : E0\r\nDuration : 2h 11mn\r\nBit rate mode : Variable\r\nBit rate : 2 224 bps\r\nStream size : 2.10 MiB (0%)\r\nLanguage : French\r\nEncoded date : UTC 2036-02-06 06:28:16\r\nTagged date : UTC 2036-02-06 06:28:16\r\n\r\nText #3\r\nID : 5\r\nFormat : mp4s\r\nCodec ID : E0\r\nDuration : 2h 13mn\r\nBit rate mode : Variable\r\nBit rate : 2 260 bps\r\nStream size : 2.15 MiB (0%)\r\nLanguage : Spanish\r\nEncoded date : UTC 2036-02-06 06:28:16\r\nTagged date : UTC 2036-02-06 06:28:16\r\n\r\nText #4\r\nID : 6\r\nFormat : mp4s\r\nCodec ID : E0\r\nDuration : 2h 13mn\r\nBit rate mode : Variable\r\nBit rate : 2 735 bps\r\nStream size : 2.60 MiB (0%)\r\nLanguage : English\r\nEncoded date : UTC 2036-02-06 06:28:16\r\nTagged date : UTC 2036-02-06 06:28:16\r\n\r\nText #5\r\nID : 7\r\nFormat : Timed Text\r\nMuxing mode : sbtl\r\nCodec ID : tx3g\r\nDuration : 2h 14mn\r\nBit rate mode : Variable\r\nBit rate : 51 bps\r\nStream size : 49.9 KiB (0%)\r\nLanguage : English\r\nEncoded date : UTC 2036-02-06 06:28:16\r\nTagged date : UTC 2036-02-06 06:28:16\r\n\r\nMenu\r\nID : 8\r\nCodec ID : text\r\nDuration : 2h 19mn\r\nLanguage : English\r\nEncoded date : UTC 2036-02-06 06:28:16\r\nTagged date : UTC 2036-02-06 06:28:16\r\n00:00:00.000 : Chapter 1\r\n00:02:13.083 : Chapter 2\r\n00:02:40.610 : Chapter 3\r\n00:07:21.658 : Chapter 4\r\n00:10:19.169 : Chapter 5\r\n00:18:35.965 : Chapter 6\r\n00:24:09.164 : Chapter 7\r\n00:31:43.952 : Chapter 8\r\n00:37:40.942 : Chapter 9\r\n00:45:02.817 : Chapter 10\r\n00:50:23.037 : Chapter 11\r\n00:55:58.405 : Chapter 12\r\n01:02:01.434 : Chapter 13\r\n01:04:17.504 : Chapter 14\r\n01:06:01.741 : Chapter 15\r\n01:12:33.599 : Chapter 16\r\n01:15:31.977 : Chapter 17\r\n01:18:08.734 : Chapter 18\r\n01:22:09.775 : Chapter 19\r\n01:24:45.130 : Chapter 20\r\n01:28:09.367 : Chapter 21\r\n01:30:25.604 : Chapter 22\r\n01:35:35.280 : Chapter 23\r\n01:40:12.990 : Chapter 24\r\n01:43:16.474 : Chapter 25\r\n01:46:17.021 : Chapter 26\r\n01:48:41.598 : Chapter 27\r\n01:53:48.271 : Chapter 28\r\n01:59:25.475 : Chapter 29\r\n02:04:35.752 : Chapter 30\r\n02:11:33.235 : Chapter 31\r\n02:14:05.120 : Chapter 32\r\nBit rate mode : VBR","torrent":{"xt":"urn:btih:af7790090812a71cb2f1112398bba6a24016c7d2","amp;dn":"Rob+Roy+%5B1995%5D+DVDRip+x264","amp;tr":["udp%3A%2F%2Ftracker.leechers-paradise.org%3A6969","udp%3A%2F%2Fzer0day.ch%3A1337","udp%3A%2F%2Fopen.demonii.com%3A1337","udp%3A%2F%2Ftracker.coppersurfer.tk%3A6969","udp%3A%2F%2Fexodus.desync.com%3A6969"],"infoHash":"af7790090812a71cb2f1112398bba6a24016c7d2","infoHashBuffer":{"type":"Buffer","data":[175,119,144,9,8,18,167,28,178,241,17,35,152,187,166,162,64,22,199,210]},"announce":[],"urlList":[]}}